<?xml version="1.0" standalone="no"?>
<!DOCTYPE svg PUBLIC "-//W3C//DTD SVG 20010904//EN"
 "http://www.w3.org/TR/2001/REC-SVG-20010904/DTD/svg10.dtd">
<svg version="1.0" xmlns="http://www.w3.org/2000/svg"
 width="592.000000pt" height="592.000000pt" viewBox="0 0 592.000000 592.000000"
 preserveAspectRatio="xMidYMid meet">
<metadata>
Created by potrace 1.14, written by Peter Selinger 2001-2017
</metadata>
<g transform="translate(0.000000,592.000000) scale(0.100000,-0.100000)"
fill="#000000" stroke="none">
<path d="M4819 5515 c-2 -1 -51 -5 -109 -9 -58 -3 -114 -7 -125 -9 -11 -3 -51
-8 -90 -12 -38 -4 -79 -9 -90 -11 -10 -2 -35 -6 -55 -9 -35 -5 -61 -10 -110
-20 -14 -2 -40 -7 -58 -10 -130 -21 -493 -129 -627 -185 -263 -112 -392 -179
-582 -306 -303 -201 -642 -505 -853 -764 -25 -30 -51 -61 -58 -69 -95 -101
-364 -508 -419 -632 -11 -25 13 -50 902 -939 l913 -913 33 20 c19 11 61 35 94
53 122 66 439 284 531 366 12 10 46 39 75 64 212 177 463 444 631 669 101 135
107 143 180 261 216 346 377 787 454 1237 2 16 7 39 9 53 5 23 9 52 20 140 3
19 7 60 10 90 3 30 8 73 11 95 3 22 7 166 9 320 3 249 2 286 -14 333 -25 73
-67 121 -136 157 l-59 30 -242 2 c-133 1 -244 0 -245 -2z m-722 -884 c328 -91
548 -367 558 -699 16 -541 -520 -917 -1025 -720 -225 88 -411 306 -455 533
-13 67 -15 84 -15 170 -2 364 279 684 645 735 80 11 218 2 292 -19z"/>
<path d="M3808 4344 c-85 -20 -155 -59 -218 -123 -98 -99 -136 -204 -127 -348
10 -159 103 -296 249 -367 92 -44 170 -56 267 -40 97 16 174 56 242 124 178
177 180 455 5 633 -108 109 -268 155 -418 121z"/>
<path d="M1637 4134 c-1 -1 -38 -5 -82 -8 -44 -4 -105 -8 -135 -11 -30 -2 -90
-7 -133 -10 -117 -9 -207 -47 -276 -117 -39 -39 -529 -774 -577 -865 -30 -56
-33 -70 -30 -131 4 -99 50 -179 128 -225 41 -24 116 -41 293 -68 107 -16 113
-17 166 -23 l46 -6 23 97 c100 438 307 897 572 1270 32 45 58 85 58 90 0 6
-47 12 -53 7z"/>
<path d="M1482 3128 c-42 -105 -96 -282 -126 -412 -40 -173 -41 -248 -8 -317
29 -60 999 -1029 1057 -1055 42 -19 137 -25 206 -12 146 29 494 130 539 158
11 7 -186 209 -816 839 -457 457 -833 831 -835 831 -3 0 -10 -15 -17 -32z"/>
<path d="M984 2076 c-40 -18 -553 -531 -570 -571 -18 -43 -9 -102 22 -142 36
-47 85 -67 143 -58 44 7 58 19 300 258 139 139 266 270 282 291 90 121 -39
282 -177 222z"/>
<path d="M4106 1681 c-3 -5 -56 -42 -118 -83 -400 -266 -805 -444 -1222 -539
l-98 -22 6 -46 c3 -25 8 -55 10 -66 2 -11 9 -55 16 -98 13 -87 16 -108 30
-186 27 -150 123 -234 270 -235 66 -1 82 3 130 30 106 60 825 542 858 575 69
68 107 159 117 277 8 105 14 180 21 272 3 47 7 95 9 108 4 22 -18 32 -29 13z"/>
<path d="M1426 1624 c-41 -21 -989 -971 -1010 -1011 -35 -69 -5 -158 64 -193
49 -25 91 -25 138 0 52 27 995 976 1012 1018 16 40 8 107 -17 141 -41 56 -128
77 -187 45z"/>
<path d="M1875 1176 c-35 -16 -564 -546 -566 -567 -1 -8 -3 -29 -5 -47 -12
-101 106 -187 202 -147 16 7 150 132 297 279 284 284 297 302 283 379 -17 93
-121 143 -211 103z"/>
</g>
</svg>
