<svg xmlns="http://www.w3.org/2000/svg" width="50" height="50" style="shape-rendering:geometricPrecision;text-rendering:geometricPrecision;image-rendering:optimizeQuality;fill-rule:evenodd;clip-rule:evenodd" viewBox="0 0 50 50"><path style="opacity:.996" fill="#0c9488" d="M40.076 3.336c1.549-.014 3.097 0 4.645.042.863.159 1.44.652 1.731 1.478.914 11.498-3.098 20.831-12.035 27.998a34.582 34.582 0 0 1-5.279 3.421L13.64 20.777c3.387-6.372 8.286-11.214 14.696-14.527a35.27 35.27 0 0 1 11.74-2.914Zm-7.939 7.348c2.874-.161 5.028.993 6.461 3.463 1.248 3.046.642 5.65-1.816 7.813-2.486 1.705-4.992 1.734-7.517.084-2.533-2.121-3.194-4.726-1.985-7.813 1.061-1.948 2.68-3.131 4.856-3.547Z"/><path style="opacity:.989" fill="#0c9488" d="M32.306 13.133c2.329-.153 3.807.889 4.434 3.125.251 1.991-.524 3.413-2.323 4.265-2.244.66-3.919-.029-5.025-2.069-.646-2.032-.097-3.651 1.647-4.856.417-.2.839-.354 1.267-.465Zm-18.75 1.858c.283-.014.564 0 .845.042a32.698 32.698 0 0 0-5.743 12.458 73.248 73.248 0 0 1-3.97-.718c-1.216-.689-1.624-1.716-1.225-3.083a297.547 297.547 0 0 1 4.645-7.095 3.414 3.414 0 0 1 1.816-1.225 219.744 219.744 0 0 1 3.632-.38Z"/><path style="opacity:.992" fill="#0c9488" d="M12.542 23.184a837.146 837.146 0 0 1 14.189 14.105 15.034 15.034 0 0 1-6.166 1.478 2.968 2.968 0 0 1-.845-.422l-8.149-8.151a2.14 2.14 0 0 1-.465-1.52 20.779 20.779 0 0 1 1.436-5.49Z"/><path style="opacity:.981" fill="#0c9488" d="M8.742 32.221c.814.082 1.265.533 1.351 1.351a2.165 2.165 0 0 1-.296.845l-4.349 4.35c-.902.447-1.591.236-2.069-.633a1.679 1.679 0 0 1 .169-1.182l4.518-4.52c.232-.08.458-.15.676-.211Z"/><path style="opacity:.988" fill="#0c9488" d="M34.84 35.515c.056.138.084.293.084.465a89.418 89.418 0 0 1-.38 4.012 3.418 3.418 0 0 1-1.225 1.816 297.442 297.442 0 0 1-7.095 4.645c-1.696.455-2.779-.15-3.252-1.816a119.33 119.33 0 0 0-.549-3.336 36.333 36.333 0 0 0 9.797-3.97 32.171 32.171 0 0 0 2.618-1.816Z"/><path style="opacity:.983" fill="#0c9388" d="M12.373 36.022c.905.004 1.412.455 1.52 1.351a1.76 1.76 0 0 1-.38.929l-7.981 7.982c-.619.394-1.239.394-1.858 0-.433-.623-.447-1.256-.042-1.9l7.981-7.981a2.41 2.41 0 0 1 .76-.38Z"/><path style="opacity:.988" fill="#0c9488" d="M16.09 39.823c1.329.099 1.794.774 1.394 2.027l-4.519 4.518c-.876.441-1.538.23-1.985-.633a1.893 1.893 0 0 1 .169-1.267l4.35-4.35.591-.296Z"/></svg>